<svg width="319" height="200" viewBox="0 0 319 200" fill="none" xmlns="http://www.w3.org/2000/svg">
<g clip-path="url(#clip0_574_224)">
<mask id="mask0_574_224" style="mask-type:luminance" maskUnits="userSpaceOnUse" x="0" y="0" width="320" height="199">
<path d="M307.637 0H12.4118C6.09905 0 0.981537 4.9454 0.981537 11.0459V187.85C0.981537 193.95 6.09905 198.895 12.4118 198.895H307.637C313.95 198.895 319.067 193.95 319.067 187.85V11.0459C319.067 4.9454 313.95 0 307.637 0Z" fill="white"/>
</mask>
<g mask="url(#mask0_574_224)">
<path d="M319.067 0H0.981537V198.895H319.067V0Z" fill="white"/>
<path fill-rule="evenodd" clip-rule="evenodd" d="M0.672913 198.895V158.976C0.672913 158.976 60.038 130.341 100.044 152.098C166.576 188.273 203.008 166.542 261.131 138.556C280.395 129.281 319.376 142.86 319.376 142.86V198.895H0.672913Z" fill="#14499E"/>
<path fill-rule="evenodd" clip-rule="evenodd" d="M319.067 134.156C319.067 134.156 262.735 112.936 207.588 144.763C152.44 176.59 113.314 151.159 113.314 151.159C113.314 151.159 150.928 181.274 214.492 159.163C310.613 125.724 319.067 176.969 319.067 176.969V134.156Z" fill="#2B66B1"/>
<path fill-rule="evenodd" clip-rule="evenodd" d="M0.981537 141.405C0.981537 141.405 56.2812 118.367 109.379 152.083C159.946 184.223 212.442 161.203 212.442 161.203C212.442 161.203 169.121 188.516 105.553 166.424C9.43232 132.977 0.981537 184.223 0.981537 184.223V141.405Z" fill="#44B3E6"/>
<path fill-rule="evenodd" clip-rule="evenodd" d="M319.673 -1.10461V38.8188C319.673 38.8188 260.319 67.457 220.298 45.6967C153.766 9.5215 117.334 31.2524 59.2112 59.2389C39.9512 68.5138 0.981537 54.9273 0.981537 54.9273V-1.10461H319.673Z" fill="#14499E"/>
<path fill-rule="evenodd" clip-rule="evenodd" d="M1.28253 63.6388C1.28253 63.6388 57.6147 84.8579 112.758 53.0201C167.902 21.1822 207.031 46.6356 207.031 46.6356C207.031 46.6356 169.422 16.5209 105.854 38.631C9.74474 72.0705 1.28253 20.8251 1.28253 20.8251V63.6388Z" fill="#2B66B1"/>
<path fill-rule="evenodd" clip-rule="evenodd" d="M319.364 56.3891C319.364 56.3891 264.065 79.4271 210.971 45.7114C160.4 13.5717 107.897 36.5912 107.897 36.5912C107.897 36.5912 151.229 9.26745 214.793 31.3813C310.914 64.8023 319.364 13.5717 319.364 13.5717V56.3891Z" fill="#44B3E6"/>
<path d="M140.4 188.097H138.54V190.934C138.54 191.339 138.445 191.647 138.253 191.856C138.062 192.066 137.82 192.171 137.529 192.171C137.223 192.171 136.977 192.068 136.79 191.863C136.603 191.654 136.51 191.348 136.51 190.947V183.223C136.51 182.776 136.612 182.457 136.818 182.266C137.023 182.074 137.348 181.979 137.795 181.979H140.4C141.17 181.979 141.762 182.038 142.177 182.156C142.587 182.27 142.94 182.459 143.237 182.724C143.537 182.988 143.765 183.312 143.92 183.694C144.075 184.077 144.153 184.508 144.153 184.986C144.153 186.007 143.838 186.782 143.209 187.311C142.58 187.835 141.644 188.097 140.4 188.097ZM139.907 183.503H138.54V186.565H139.907C140.386 186.565 140.785 186.515 141.104 186.415C141.427 186.315 141.673 186.151 141.842 185.923C142.011 185.695 142.095 185.396 142.095 185.027C142.095 184.585 141.965 184.225 141.705 183.947C141.414 183.651 140.814 183.503 139.907 183.503ZM145.93 190.934V183.038C145.93 182.628 146.023 182.32 146.21 182.115C146.397 181.91 146.639 181.808 146.935 181.808C147.24 181.808 147.486 181.91 147.673 182.115C147.864 182.316 147.96 182.623 147.96 183.038V190.934C147.96 191.348 147.864 191.658 147.673 191.863C147.486 192.068 147.24 192.171 146.935 192.171C146.643 192.171 146.402 192.068 146.21 191.863C146.023 191.654 145.93 191.344 145.93 190.934ZM156.84 183.544H152.267V186.005H156.478C156.788 186.005 157.018 186.076 157.168 186.217C157.323 186.354 157.401 186.536 157.401 186.764C157.401 186.992 157.325 187.178 157.175 187.324C157.025 187.465 156.792 187.536 156.478 187.536H152.267V190.387H156.997C157.316 190.387 157.556 190.462 157.715 190.612C157.879 190.758 157.961 190.954 157.961 191.2C157.961 191.437 157.879 191.631 157.715 191.781C157.556 191.927 157.316 192 156.997 192H151.481C151.039 192 150.72 191.902 150.524 191.706C150.332 191.51 150.237 191.193 150.237 190.756V183.223C150.237 182.931 150.28 182.694 150.366 182.512C150.453 182.325 150.587 182.19 150.77 182.108C150.957 182.022 151.194 181.979 151.481 181.979H156.84C157.164 181.979 157.403 182.051 157.558 182.197C157.717 182.339 157.797 182.525 157.797 182.758C157.797 182.995 157.717 183.186 157.558 183.332C157.403 183.473 157.164 183.544 156.84 183.544ZM162.432 191.063V184.843C161.274 185.731 160.495 186.176 160.094 186.176C159.903 186.176 159.732 186.101 159.581 185.95C159.435 185.795 159.362 185.618 159.362 185.417C159.362 185.185 159.435 185.014 159.581 184.904C159.727 184.795 159.985 184.654 160.354 184.48C160.905 184.221 161.345 183.947 161.673 183.66C162.006 183.373 162.3 183.052 162.555 182.696C162.81 182.341 162.976 182.122 163.054 182.04C163.131 181.958 163.277 181.917 163.491 181.917C163.733 181.917 163.927 182.01 164.072 182.197C164.218 182.384 164.291 182.642 164.291 182.97V190.797C164.291 191.713 163.979 192.171 163.355 192.171C163.077 192.171 162.853 192.077 162.685 191.891C162.516 191.704 162.432 191.428 162.432 191.063ZM174.463 187.085C174.463 187.832 174.418 188.475 174.326 189.013C174.235 189.55 174.067 190.038 173.82 190.476C173.511 191.013 173.11 191.428 172.617 191.72C172.125 192.011 171.578 192.157 170.977 192.157C170.284 192.157 169.662 191.961 169.111 191.569C168.564 191.177 168.151 190.635 167.873 189.942C167.732 189.564 167.627 189.147 167.559 188.691C167.495 188.231 167.463 187.734 167.463 187.201C167.463 186.513 167.5 185.893 167.572 185.342C167.645 184.79 167.759 184.316 167.914 183.92C168.183 183.264 168.573 182.765 169.083 182.423C169.598 182.076 170.211 181.903 170.922 181.903C171.391 181.903 171.818 181.981 172.2 182.136C172.583 182.286 172.918 182.509 173.205 182.806C173.497 183.097 173.743 183.46 173.944 183.893C174.29 184.645 174.463 185.709 174.463 187.085ZM172.59 186.948C172.59 186.114 172.54 185.433 172.44 184.904C172.339 184.371 172.171 183.97 171.934 183.701C171.697 183.428 171.369 183.291 170.949 183.291C170.348 183.291 169.929 183.594 169.692 184.2C169.459 184.806 169.343 185.741 169.343 187.003C169.343 187.86 169.393 188.562 169.493 189.108C169.594 189.655 169.762 190.07 169.999 190.353C170.236 190.631 170.557 190.77 170.963 190.77C171.382 190.77 171.71 190.624 171.947 190.332C172.184 190.04 172.351 189.623 172.446 189.081C172.542 188.539 172.59 187.828 172.59 186.948ZM179.084 191.063V184.843C177.927 185.731 177.147 186.176 176.746 186.176C176.555 186.176 176.384 186.101 176.234 185.95C176.088 185.795 176.015 185.618 176.015 185.417C176.015 185.185 176.088 185.014 176.234 184.904C176.379 184.795 176.637 184.654 177.006 184.48C177.557 184.221 177.997 183.947 178.325 183.66C178.658 183.373 178.952 183.052 179.207 182.696C179.462 182.341 179.629 182.122 179.706 182.04C179.784 181.958 179.93 181.917 180.144 181.917C180.385 181.917 180.579 182.01 180.725 182.197C180.871 182.384 180.944 182.642 180.944 182.97V190.797C180.944 191.713 180.631 192.171 180.007 192.171C179.729 192.171 179.506 192.077 179.337 191.891C179.168 191.704 179.084 191.428 179.084 191.063Z" fill="white"/>
</g>
</g>
<defs>
<clipPath id="clip0_574_224">
<rect width="319" height="200" fill="white"/>
</clipPath>
</defs>
</svg>
